HIERARCHY
ROOT Hips
{
	OFFSET -0.001795 -0.223333 0.028219
	CHANNELS 6 Xposition Yposition Zposition Zrotation Yrotation Xrotation 
	JOINT LeftUpLeg
	{
		OFFSET 0.069520 -0.091406 -0.006815
		CHANNELS 3 Zrotation Yrotation Xrotation
		JOINT LeftLeg
		{
			OFFSET 0.034277 -0.375199 -0.004496
			CHANNELS 3 Zrotation Yrotation Xrotation
			JOINT LeftFoot
			{
				OFFSET -0.013596 -0.397961 -0.043693
				CHANNELS 3 Zrotation Yrotation Xrotation
				JOINT LeftToe
				{
					OFFSET 0.026358 -0.055791 0.119288
					CHANNELS 3 Zrotation Yrotation Xrotation
					End Site
					{
						OFFSET 0.000000 0.000000 0.000000
					}
				}
			}
		}
	}
	JOINT RightUpLeg
	{
		OFFSET -0.067670 -0.090522 -0.004320
		CHANNELS 3 Zrotation Yrotation Xrotation
		JOINT RightLeg
		{
			OFFSET -0.038290 -0.382569 -0.008850
			CHANNELS 3 Zrotation Yrotation Xrotation
			JOINT RightFoot
			{
				OFFSET 0.015774 -0.398415 -0.042312
				CHANNELS 3 Zrotation Yrotation Xrotation
				JOINT RightToe
				{
					OFFSET -0.025372 -0.048144 0.123348
					CHANNELS 3 Zrotation Yrotation Xrotation
					End Site
					{
						OFFSET 0.000000 0.000000 0.000000
					}
				}
			}
		}
	}
	JOINT Spine
	{
		OFFSET -0.002533 0.108963 -0.026696
		CHANNELS 3 Zrotation Yrotation Xrotation
		JOINT Spine1
		{
			OFFSET 0.005487 0.135180 0.001092
			CHANNELS 3 Zrotation Yrotation Xrotation
			JOINT Spine2
			{
				OFFSET 0.001457 0.052922 0.025425
				CHANNELS 3 Zrotation Yrotation Xrotation
				JOINT Neck
				{
					OFFSET -0.002778 0.213870 -0.042857
					CHANNELS 3 Zrotation Yrotation Xrotation
					JOINT Head
					{
						OFFSET 0.005152 0.064970 0.051349
						CHANNELS 3 Zrotation Yrotation Xrotation
						End Site
						{
							OFFSET 0.000000 0.000000 0.000000
						}
					}
				}
				JOINT LeftShoulder
				{
					OFFSET 0.078845 0.121749 -0.034090
					CHANNELS 3 Zrotation Yrotation Xrotation
					JOINT LeftArm
					{
						OFFSET 0.090977 0.030469 -0.008868
						CHANNELS 3 Zrotation Yrotation Xrotation
						JOINT LeftForeArm
						{
							OFFSET 0.259612 -0.012772 -0.027456
							CHANNELS 3 Zrotation Yrotation Xrotation
							JOINT LeftHand
							{
								OFFSET 0.249234 0.008986 -0.001171
								CHANNELS 3 Zrotation Yrotation Xrotation
								End Site
								{
									OFFSET 0.000000 0.000000 0.000000
								}
							}
						}
					}
				}
				JOINT RightShoulder
				{
					OFFSET -0.081759 0.118833 -0.038615
					CHANNELS 3 Zrotation Yrotation Xrotation
					JOINT RightArm
					{
						OFFSET -0.096012 0.032551 -0.009143
						CHANNELS 3 Zrotation Yrotation Xrotation
						JOINT RightForeArm
						{
							OFFSET -0.253742 -0.013329 -0.021401
							CHANNELS 3 Zrotation Yrotation Xrotation
							JOINT RightHand
							{
								OFFSET -0.255298 0.007772 -0.005559
								CHANNELS 3 Zrotation Yrotation Xrotation
								End Site
								{
									OFFSET 0.000000 0.000000 0.000000
								}
							}
						}
					}
				}
			}
		}
	}
}
MOTION
Frames: 12
Frame Time: 0.050000
0.000000 0.952825 0.000000 -0.525188 -0.715014 6.971515 4.654045 -0.354095 -4.405631 0.111180 0.182270 -5.523445 0.285316 4.710151 11.144025 0.000000 0.000000 0.000000 -1.099289 0.370281 -3.585014 -2.457112 -0.140012 -6.399700 0.710956 -3.798986 12.263179 0.000000 0.000000 0.000000 3.949155 0.204878 -4.380401 -2.376427 1.117298 -4.991560 -2.680689 5.667942 7.816678 6.774812 -2.934019 -13.116450 0.000000 0.000000 0.000000 -14.211021 -3.667285 -0.586118 -57.948098 -7.194878 -3.734714 -9.192474 -20.655137 2.249281 0.000000 0.000000 0.000000 13.605065 -2.349167 -1.339251 65.539414 7.685636 -1.924504 6.759129 20.451077 2.014073 0.000000 0.000000 0.000000 
0.000406 0.951378 0.001354 -0.836446 -1.535140 7.493049 4.818415 -0.324569 -3.859488 0.527358 0.205842 -6.719445 0.283978 4.483257 10.736568 0.000000 0.000000 0.000000 -1.157824 0.478768 -4.762719 -2.480986 -0.069356 -5.199149 1.323740 -2.699254 12.144990 0.000000 0.000000 0.000000 4.786963 0.220665 -4.544727 -2.876200 1.312614 -5.120234 -3.007973 6.755243 7.534501 7.278159 -3.039289 -13.958391 0.000000 0.000000 0.000000 -14.973142 -3.528105 -0.905017 -57.167899 -6.964210 -3.712912 -9.507973 -21.148026 2.322772 0.000000 0.000000 0.000000 13.098895 -3.260480 -1.671263 67.021327 7.535267 -1.842211 7.168420 20.298118 2.085651 0.000000 0.000000 0.000000 
0.000696 0.951608 0.002308 -0.560796 -1.299876 7.090089 4.726450 -0.317550 -3.768623 0.327829 0.168382 -5.490916 -0.114133 3.570981 9.909646 0.000000 0.000000 0.000000 -1.312984 0.457433 -4.534550 -2.904740 -0.039070 -5.112709 1.057964 -3.213979 12.240458 0.000000 0.000000 0.000000 4.324457 0.202055 -4.294191 -2.159906 1.019996 -6.240572 -3.676059 6.370312 8.159056 7.245950 -3.220849 -13.023544 0.000000 0.000000 0.000000 -14.726934 -3.272963 -0.942230 -57.684068 -6.590737 -4.030156 -8.709812 -19.775345 2.052389 0.000000 0.000000 0.000000 14.375235 -2.078709 -1.125693 65.604241 7.411630 -2.138987 6.753952 20.666462 2.060335 0.000000 0.000000 0.000000 
0.000930 0.951365 0.003218 -0.491281 -1.474939 7.312380 4.963317 -0.315385 -3.723375 -0.052919 0.202028 -5.785265 -0.265110 3.521589 10.619732 0.000000 0.000000 0.000000 -1.482070 0.489479 -4.879679 -2.788944 -0.046127 -5.106994 0.975105 -3.505066 12.528430 0.000000 0.000000 0.000000 4.299208 0.233843 -4.718188 -2.531752 1.168530 -5.871338 -3.298129 5.597890 7.620332 6.944840 -3.274438 -12.013612 0.000000 0.000000 0.000000 -15.227532 -2.648247 -1.140953 -58.222151 -6.431298 -4.077405 -7.187030 -19.286794 1.779529 0.000000 0.000000 0.000000 13.423225 -2.039674 -1.248214 66.116155 7.316999 -2.130423 7.823532 20.827316 2.220787 0.000000 0.000000 0.000000 
0.001131 0.951590 0.003904 -0.406404 -1.494352 7.168415 4.496819 -0.304613 -3.495740 0.368388 0.175710 -5.742994 -0.126836 3.779845 10.687878 0.000000 0.000000 0.000000 -1.483153 0.466765 -4.627417 -3.204257 -0.033693 -5.271229 0.841604 -3.880417 12.845928 0.000000 0.000000 0.000000 4.115178 0.244511 -4.843436 -2.132181 1.005328 -5.839938 -3.654637 5.122139 7.723241 6.520061 -2.971250 -12.344050 0.000000 0.000000 0.000000 -15.615675 -2.114813 -1.363076 -57.991654 -6.664493 -3.948548 -6.505029 -17.652287 1.541813 0.000000 0.000000 0.000000 13.361541 -2.120351 -1.351910 66.148275 7.394679 -2.131145 8.141891 20.976370 2.282718 0.000000 0.000000 0.000000 
0.001294 0.951681 0.004299 -0.361716 -1.896395 7.314673 4.177060 -0.313434 -3.658456 0.573340 0.146119 -5.310074 0.306041 4.354396 10.308413 0.000000 0.000000 0.000000 -1.555412 0.490758 -4.890459 -3.419406 -0.018343 -5.191494 1.055953 -3.588576 12.980169 0.000000 0.000000 0.000000 4.176044 0.253267 -4.941457 -2.247418 1.046323 -6.060436 -3.739680 4.972540 7.790839 6.525500 -3.041504 -12.151278 0.000000 0.000000 0.000000 -15.800737 -1.541444 -1.589901 -57.836132 -6.681174 -3.930923 -5.927031 -17.630312 1.464705 0.000000 0.000000 0.000000 12.859490 -2.310532 -1.480661 66.610035 7.131164 -2.287141 8.895945 21.308271 2.443464 0.000000 0.000000 0.000000 
0.001493 0.951894 0.004429 -0.262421 -2.005116 7.304941 3.997399 -0.315897 -3.695165 0.645547 0.130787 -5.049516 0.418943 4.601479 10.527007 0.000000 0.000000 0.000000 -1.654592 0.497992 -4.971171 -3.674471 -0.000757 -5.133481 1.107698 -3.559740 13.115501 0.000000 0.000000 0.000000 4.097396 0.244873 -4.842247 -2.129362 0.997299 -6.103631 -4.011656 4.750490 7.762956 6.611746 -3.038003 -12.639844 0.000000 0.000000 0.000000 -15.925662 -1.196513 -1.726513 -57.404722 -6.202555 -4.124823 -6.559804 -17.810688 1.584094 0.000000 0.000000 0.000000 12.813199 -2.514854 -1.616812 66.491179 6.495198 -2.672419 9.654920 22.102681 2.681390 0.000000 0.000000 0.000000 
0.001732 0.952111 0.004449 -0.200764 -1.982367 7.528785 3.818351 -0.341426 -4.081317 0.655069 0.110867 -4.578678 0.786521 5.127624 10.176063 0.000000 0.000000 0.000000 -1.760369 0.519495 -5.209336 -3.885134 0.005912 -5.197283 1.485667 -2.779103 12.953191 0.000000 0.000000 0.000000 4.084976 0.243683 -4.869123 -2.111801 0.989956 -6.181912 -4.466648 4.762567 7.613584 6.902870 -3.258985 -12.398882 0.000000 0.000000 0.000000 -15.513777 -0.986307 -1.796303 -56.965227 -5.550074 -4.395352 -7.823691 -18.838114 1.873813 0.000000 0.000000 0.000000 12.804033 -3.278671 -1.973914 66.579842 5.579114 -3.170273 11.073264 23.059693 3.101701 0.000000 0.000000 0.000000 
0.001999 0.952318 0.004437 -0.093951 -2.216741 7.475139 3.523221 -0.332519 -3.909314 0.647375 0.113875 -4.643244 1.003446 5.440559 10.051194 0.000000 0.000000 0.000000 -1.717621 0.501534 -5.000473 -4.077516 -0.002169 -5.434624 1.624305 -2.531236 12.896085 0.000000 0.000000 0.000000 4.060678 0.229575 -4.674575 -2.188334 1.017687 -6.257339 -4.615107 4.776608 7.492523 7.057810 -3.380803 -12.322370 0.000000 0.000000 0.000000 -15.312465 -0.605306 -1.936200 -56.584514 -4.976985 -4.629468 -9.394725 -19.749354 2.233763 0.000000 0.000000 0.000000 12.914804 -3.630793 -2.168963 66.160375 4.805835 -3.609816 12.092703 24.121526 3.476462 0.000000 0.000000 0.000000 
0.002232 0.952196 0.004457 0.106609 -2.407784 7.577878 3.250737 -0.356731 -4.260504 0.614428 0.110220 -4.499700 1.332929 5.965361 9.976293 0.000000 0.000000 0.000000 -1.965028 0.506480 -5.040859 -4.068687 -0.025319 -5.729697 1.694543 -2.338889 12.684264 0.000000 0.000000 0.000000 3.961562 0.226133 -4.650705 -2.141492 0.995788 -6.126634 -5.065168 4.992091 7.314668 7.806902 -3.874385 -12.243626 0.000000 0.000000 0.000000 -14.895628 -0.549405 -1.944666 -55.909656 -4.642800 -4.713127 -11.550180 -20.679374 2.712634 0.000000 0.000000 0.000000 12.699776 -4.258940 -2.431366 65.847111 3.963899 -4.031717 14.348111 25.577351 4.234679 0.000000 0.000000 0.000000 
0.002453 0.952002 0.004415 0.215565 -2.510256 7.694254 3.122708 -0.350494 -4.127625 0.599037 0.126781 -4.878640 1.323281 6.002273 10.218086 0.000000 0.000000 0.000000 -1.926839 0.504687 -5.013518 -4.197752 -0.030595 -5.878183 1.648641 -2.456500 12.718470 0.000000 0.000000 0.000000 3.955153 0.235580 -4.786032 -2.064720 0.962909 -6.173698 -5.432128 5.085857 7.295621 8.015698 -4.068828 -11.907820 0.000000 0.000000 0.000000 -14.558334 -0.105607 -2.124587 -55.320039 -3.894963 -5.006214 -14.056188 -22.769911 3.479009 0.000000 0.000000 0.000000 12.482753 -5.097261 -2.807368 65.334647 2.806544 -4.637092 17.781845 27.469136 5.448084 0.000000 0.000000 0.000000 
0.002618 0.951446 0.004083 0.303205 -2.628053 7.785256 3.080840 -0.357659 -4.231901 0.494504 0.135019 -4.907206 1.488293 6.243089 10.109869 0.000000 0.000000 0.000000 -1.892858 0.518944 -5.178495 -4.328244 -0.013612 -5.726638 1.640181 -2.290725 12.232006 0.000000 0.000000 0.000000 3.976626 0.260865 -5.104583 -2.109885 0.979239 -5.892562 -5.737400 5.355981 7.298751 9.041347 -4.695569 -12.134453 0.000000 0.000000 0.000000 -13.714672 -0.119916 -2.033327 -54.440876 -3.260301 -5.217620 -17.340366 -25.210606 4.562659 0.000000 0.000000 0.000000 11.922461 -5.668435 -2.997149 65.134628 1.203625 -5.467518 22.993880 31.214184 7.846073 0.000000 0.000000 0.000000 
